<svg width="57" height="71" viewBox="0 0 57 71" fill="none" xmlns="http://www.w3.org/2000/svg">
<path d="M17.8226 28.3279H21.36C22.2981 28.3279 23.1979 27.9548 23.8613 27.2907C24.5246 26.6267 24.8973 25.726 24.8973 24.7869C24.8973 23.8478 24.5246 22.9471 23.8613 22.283C23.1979 21.619 22.2981 21.2459 21.36 21.2459H17.8226C16.8844 21.2459 15.9847 21.619 15.3213 22.283C14.6579 22.9471 14.2852 23.8478 14.2852 24.7869C14.2852 25.726 14.6579 26.6267 15.3213 27.2907C15.9847 27.9548 16.8844 28.3279 17.8226 28.3279ZM17.8226 35.4098C16.8844 35.4098 15.9847 35.7829 15.3213 36.447C14.6579 37.111 14.2852 38.0117 14.2852 38.9508C14.2852 39.8899 14.6579 40.7906 15.3213 41.4547C15.9847 42.1187 16.8844 42.4918 17.8226 42.4918H39.0468C39.985 42.4918 40.8847 42.1187 41.5481 41.4547C42.2115 40.7906 42.5842 39.8899 42.5842 38.9508C42.5842 38.0117 42.2115 37.111 41.5481 36.447C40.8847 35.7829 39.985 35.4098 39.0468 35.4098H17.8226ZM56.7337 24.5744C56.6968 24.2491 56.6257 23.9287 56.5214 23.6184V23.2997C56.3513 22.9356 56.1245 22.6009 55.8493 22.3082L34.6251 1.06229C34.3327 0.786864 33.9984 0.559762 33.6346 0.389508C33.529 0.374495 33.4219 0.374495 33.3163 0.389508C32.9569 0.183215 32.5601 0.0507926 32.1489 0H10.7479C7.93335 0 5.23412 1.1192 3.24396 3.11139C1.2538 5.10358 0.135742 7.80557 0.135742 10.623V60.1967C0.135742 63.0141 1.2538 65.7161 3.24396 67.7083C5.23412 69.7005 7.93335 70.8197 10.7479 70.8197H46.1216C48.9361 70.8197 51.6353 69.7005 53.6255 67.7083C55.6156 65.7161 56.7337 63.0141 56.7337 60.1967V24.7869C56.7337 24.7869 56.7337 24.7869 56.7337 24.5744ZM35.5094 12.0748L44.6712 21.2459H39.0468C38.1086 21.2459 37.2089 20.8728 36.5455 20.2088C35.8821 19.5447 35.5094 18.644 35.5094 17.7049V12.0748ZM49.6589 60.1967C49.6589 61.1358 49.2862 62.0365 48.6229 62.7006C47.9595 63.3646 47.0597 63.7377 46.1216 63.7377H10.7479C9.80968 63.7377 8.90994 63.3646 8.24656 62.7006C7.58317 62.0365 7.21048 61.1358 7.21048 60.1967V10.623C7.21048 9.68382 7.58317 8.78316 8.24656 8.1191C8.90994 7.45503 9.80968 7.08197 10.7479 7.08197H28.4347V17.7049C28.4347 20.5223 29.5528 23.2243 31.5429 25.2165C33.5331 27.2087 36.2323 28.3279 39.0468 28.3279H49.6589V60.1967ZM39.0468 49.5738H17.8226C16.8844 49.5738 15.9847 49.9468 15.3213 50.6109C14.6579 51.275 14.2852 52.1756 14.2852 53.1148C14.2852 54.0539 14.6579 54.9545 15.3213 55.6186C15.9847 56.2827 16.8844 56.6557 17.8226 56.6557H39.0468C39.985 56.6557 40.8847 56.2827 41.5481 55.6186C42.2115 54.9545 42.5842 54.0539 42.5842 53.1148C42.5842 52.1756 42.2115 51.275 41.5481 50.6109C40.8847 49.9468 39.985 49.5738 39.0468 49.5738Z" fill="#5C5C5C"/>
</svg>
