<svg width="20" height="16" viewBox="0 0 20 16" fill="none" xmlns="http://www.w3.org/2000/svg">
<path d="M10.2376 0C4.96515 0 0.686035 3.584 0.686035 8C0.686035 12.416 4.96515 16 10.2376 16C15.5101 16 19.7892 12.416 19.7892 8C19.7892 3.584 15.5101 0 10.2376 0ZM14.0583 8.8H11.1928V11.2C11.1928 11.64 10.763 12 10.2376 12C9.7123 12 9.28248 11.64 9.28248 11.2V8.8H6.417C5.89166 8.8 5.46184 8.44 5.46184 8C5.46184 7.56 5.89166 7.2 6.417 7.2H9.28248V4.8C9.28248 4.36 9.7123 4 10.2376 4C10.763 4 11.1928 4.36 11.1928 4.8V7.2H14.0583C14.5836 7.2 15.0134 7.56 15.0134 8C15.0134 8.44 14.5836 8.8 14.0583 8.8Z" fill="#C1C1C1"/>
</svg>
