<svg width="17" height="17" viewBox="0 0 17 17" fill="none" xmlns="http://www.w3.org/2000/svg">
<path fill-rule="evenodd" clip-rule="evenodd" d="M8.5 17C13.1944 17 17 13.1944 17 8.5C17 3.80558 13.1944 0 8.5 0C3.80558 0 0 3.80558 0 8.5C0 13.1944 3.80558 17 8.5 17ZM11.4785 7.05505L10.8283 6.26456C10.6883 6.09438 10.8247 5.83497 11.0443 5.86141L13.1903 6.07043C13.3303 6.08407 13.4297 6.20484 13.416 6.3449L13.207 8.4909C13.1856 8.711 12.9047 8.79474 12.7648 8.62457L12.1146 7.83407L9.04644 10.353C8.83235 10.5291 8.5172 10.4984 8.34111 10.2843L6.85564 8.47827L3.9512 10.8718C3.7371 11.0479 3.42196 11.0172 3.24587 10.8031C3.06978 10.589 3.10047 10.2738 3.31456 10.0977L6.60877 7.38367C6.82286 7.20758 7.13801 7.23828 7.3141 7.45237L8.79957 9.25842L11.4785 7.05505Z" fill="#F6F8FB"/>
</svg>
