<svg width="18" height="18" viewBox="0 0 18 18" fill="none" xmlns="http://www.w3.org/2000/svg">
<path d="M8.1665 1.64951V16.3495C8.1665 16.8828 7.67484 17.2828 7.15817 17.1662C3.43317 16.3328 0.666504 12.9912 0.666504 8.99951C0.666504 5.00785 3.43317 1.66618 7.15817 0.832848C7.67484 0.716181 8.1665 1.11618 8.1665 1.64951ZM9.85817 1.64951V7.32451C9.85817 7.78285 10.2332 8.15785 10.6915 8.15785H16.3498C16.8832 8.15785 17.2832 7.66618 17.1665 7.14118C16.4582 4.00785 13.9998 1.54118 10.8748 0.832848C10.3498 0.716181 9.85817 1.11618 9.85817 1.64951ZM9.85817 10.6745V16.3495C9.85817 16.8828 10.3498 17.2828 10.8748 17.1662C14.0082 16.4578 16.4665 13.9828 17.1748 10.8495C17.2915 10.3328 16.8832 9.83285 16.3582 9.83285H10.6998C10.2332 9.84118 9.85817 10.2162 9.85817 10.6745Z" fill="#F6F8FB"/>
</svg>
